<?xml version="1.0" encoding="UTF-8" standalone="no"?>
<svg
   xmlns:dc="http://purl.org/dc/elements/1.1/"
   xmlns:cc="http://creativecommons.org/ns#"
   xmlns:rdf="http://www.w3.org/1999/02/22-rdf-syntax-ns#"
   xmlns:svg="http://www.w3.org/2000/svg"
   xmlns="http://www.w3.org/2000/svg"
   xmlns:xlink="http://www.w3.org/1999/xlink"
   width="35.048691mm"
   height="18.119909mm"
   viewBox="0 0 35.048691 18.119909"
   version="1.1"
   id="svg8">
  <defs
     id="defs2">
    <linearGradient
       id="linearGradient1249">
      <stop
         style="stop-color:#f8fd00;stop-opacity:1"
         offset="0"
         id="stop1245" />
      <stop
         style="stop-color:#ff9b00;stop-opacity:1"
         offset="1"
         id="stop1247" />
    </linearGradient>
    <linearGradient
       id="linearGradient1243">
      <stop
         style="stop-color:#34c00c;stop-opacity:1"
         offset="0"
         id="stop1239" />
      <stop
         style="stop-color:#f8fd00;stop-opacity:1"
         offset="1"
         id="stop1241" />
    </linearGradient>
    <linearGradient
       id="linearGradient1237">
      <stop
         style="stop-color:#01f8e9;stop-opacity:1"
         offset="0"
         id="stop1233" />
      <stop
         style="stop-color:#34c00c;stop-opacity:1"
         offset="1"
         id="stop1235" />
    </linearGradient>
    <linearGradient
       id="linearGradient1231">
      <stop
         style="stop-color:#004dff;stop-opacity:1"
         offset="0"
         id="stop1227" />
      <stop
         style="stop-color:#01f8e9;stop-opacity:1"
         offset="1"
         id="stop1229" />
    </linearGradient>
    <linearGradient
       id="linearGradient1225">
      <stop
         style="stop-color:#000000;stop-opacity:1"
         offset="0"
         id="stop1221" />
      <stop
         style="stop-color:#004dff;stop-opacity:1"
         offset="1"
         id="stop1223" />
    </linearGradient>
    <linearGradient
       id="linearGradient1219">
      <stop
         style="stop-color:#ff0000;stop-opacity:1;"
         offset="0"
         id="stop1215" />
      <stop
         style="stop-color:#000000;stop-opacity:0.98060489"
         offset="1"
         id="stop1217" />
    </linearGradient>
    <linearGradient
       id="linearGradient1199">
      <stop
         style="stop-color:#ff9b00;stop-opacity:1"
         offset="0"
         id="stop1195" />
      <stop
         style="stop-color:#ff1400;stop-opacity:1"
         offset="1"
         id="stop1197" />
    </linearGradient>
    <linearGradient
       xlink:href="#linearGradient1225"
       id="linearGradient1201"
       x1="20.517578"
       y1="27.578125"
       x2="19.296875"
       y2="28.798828"
       gradientUnits="userSpaceOnUse" />
    <linearGradient
       xlink:href="#linearGradient1231"
       id="linearGradient1203"
       x1="19.296875"
       y1="28.798828"
       x2="17.570312"
       y2="28.798828"
       gradientUnits="userSpaceOnUse" />
    <linearGradient
       xlink:href="#linearGradient1237"
       id="linearGradient1205"
       x1="17.570312"
       y1="28.798828"
       x2="16.349609"
       y2="27.578125"
       gradientUnits="userSpaceOnUse" />
    <linearGradient
       xlink:href="#linearGradient1243"
       id="linearGradient1207"
       x1="16.349609"
       y1="27.578125"
       x2="16.349609"
       y2="25.851562"
       gradientUnits="userSpaceOnUse" />
    <linearGradient
       xlink:href="#linearGradient1249"
       id="linearGradient1209"
       x1="16.349609"
       y1="25.851562"
       x2="17.570312"
       y2="24.630859"
       gradientUnits="userSpaceOnUse" />
    <linearGradient
       xlink:href="#linearGradient1199"
       id="linearGradient1211"
       x1="17.570312"
       y1="24.630859"
       x2="19.296875"
       y2="24.630859"
       gradientUnits="userSpaceOnUse" />
    <linearGradient
       xlink:href="#linearGradient1219"
       id="linearGradient1213"
       x1="19.296875"
       y1="24.630859"
       x2="20.517578"
       y2="25.851562"
       gradientUnits="userSpaceOnUse" />
  </defs>
  <metadata
     id="metadata5">
    <rdf:RDF>
      <cc:Work
         rdf:about="">
        <dc:format>image/svg+xml</dc:format>
        <dc:type
           rdf:resource="http://purl.org/dc/dcmitype/StillImage" />
        <dc:title></dc:title>
      </cc:Work>
    </rdf:RDF>
  </metadata>
  <g
     id="layer1"
     transform="translate(-7.7293187,-20.244673)">
    <path
       d="m 16.04782,31.366882 q 0.2667,0 0.3937,0.1397 0.1397,0.1397 0.1397,0.381 0,0.2032 -0.0635,0.3683 l -1.8796,5.6388 q -0.0635,0.1778 -0.2286,0.3048 -0.1651,0.1143 -0.3683,0.1143 -0.2159,0 -0.3937,-0.1143 -0.1651,-0.127 -0.2159,-0.3048 l -1.2446,-4.6101 -1.3081,4.6101 q -0.0635,0.1778 -0.2413,0.3048 -0.1651,0.1143 -0.3683,0.1143 -0.2032,0 -0.381,-0.1143 -0.1651,-0.127 -0.2286,-0.3048 l -1.8796008,-5.6388 q -0.0508,-0.1651 -0.0508,-0.3556 0,-0.5334 0.5333999,-0.5334 0.2413,0 0.3937,0.1397 0.1651,0.1397 0.2667,0.4445 l 1.3716009,4.2799 1.2954,-4.3815 q 0.0635,-0.2159 0.2159,-0.3429 0.1651,-0.1397 0.4191,-0.1397 0.2413,0 0.3937,0.1397 0.1651,0.127 0.2286,0.3429 l 1.143,4.4704 1.397,-4.3688 q 0.1778,-0.5842 0.6604,-0.5842 z"
       style="font-style:normal;font-variant:normal;font-weight:bold;font-stretch:normal;font-size:12.7px;line-height:1.25;font-family:Comfortaa;-inkscape-font-specification:'Comfortaa, Bold';font-variant-ligatures:normal;font-variant-caps:normal;font-variant-numeric:normal;font-variant-east-asian:normal;letter-spacing:-0.849312px;fill:#000000;fill-opacity:1;stroke:#ff0000;stroke-width:0;stroke-miterlimit:4;stroke-dasharray:none;stroke-opacity:1"
       id="path1254" />
    <path
       d="m 18.44009,38.313782 c -0.186267,0 -0.3429,-0.05927 -0.4699,-0.1778 -0.118533,-0.127 -0.1778,-0.283633 -0.1778,-0.4699 v -5.6515 c 0,-0.194733 0.05927,-0.351367 0.1778,-0.4699 0.127,-0.118533 0.283633,-0.1778 0.4699,-0.1778 0.194733,0 0.351367,0.05927 0.4699,0.1778 0.118533,0.118533 0.1778,0.275167 0.1778,0.4699 v 5.6515 c 0,0.186267 -0.05927,0.3429 -0.1778,0.4699 -0.118533,0.118533 -0.275167,0.1778 -0.4699,0.1778 z"
       style="font-style:normal;font-variant:normal;font-weight:bold;font-stretch:normal;font-size:12.7px;line-height:1.25;font-family:Comfortaa;-inkscape-font-specification:'Comfortaa, Bold';font-variant-ligatures:normal;font-variant-caps:normal;font-variant-numeric:normal;font-variant-east-asian:normal;letter-spacing:-0.849312px;fill:#000000;fill-opacity:1;stroke:#ff0000;stroke-width:0;stroke-miterlimit:4;stroke-dasharray:none;stroke-opacity:1"
       id="path1256" />
    <path
       d="m 24.105854,31.303382 q 0.8763,0 1.5748,0.381 0.6985,0.381 1.0922,1.1176 0.3937,0.7239 0.3937,1.7526 v 3.1242 q 0,0.2794 -0.1905,0.4699 -0.1778,0.1778 -0.4572,0.1778 -0.2794,0 -0.4699,-0.1778 -0.1778,-0.1905 -0.1778,-0.4699 v -3.1242 q 0,-1.0287 -0.5588,-1.5494 -0.5461,-0.5334 -1.4605,-0.5334 -0.5334,0 -0.9779,0.2159 -0.4318,0.2159 -0.6858,0.5842 -0.2413,0.3683 -0.2413,0.8255 v 3.5814 q 0,0.2794 -0.1778,0.4699 -0.1778,0.1778 -0.4699,0.1778 -0.2794,0 -0.4699,-0.1778 -0.1778,-0.1905 -0.1778,-0.4699 v -5.6642 q 0,-0.2921 0.1778,-0.4699 0.1905,-0.1778 0.4699,-0.1778 0.2921,0 0.4699,0.1778 0.1778,0.1778 0.1778,0.4699 v 0.1397 q 0.4064,-0.4064 0.9652,-0.6223 0.5588,-0.2286 1.1938,-0.2286 z"
       style="font-style:normal;font-variant:normal;font-weight:bold;font-stretch:normal;font-size:12.7px;line-height:1.25;font-family:Comfortaa;-inkscape-font-specification:'Comfortaa, Bold';font-variant-ligatures:normal;font-variant-caps:normal;font-variant-numeric:normal;font-variant-east-asian:normal;letter-spacing:-0.849312px;fill:#000000;fill-opacity:1;stroke:#ff0000;stroke-width:0;stroke-miterlimit:4;stroke-dasharray:none;stroke-opacity:1"
       id="path1258" />
    <path
       d="m 34.457931,28.395082 q 0.2921,0 0.4699,0.1778 0.1778,0.1778 0.1778,0.4699 v 5.7912 q 0,0.9906 -0.4699,1.8034 -0.4572,0.8001 -1.2573,1.27 -0.7874,0.4572 -1.7653,0.4572 -0.9779,0 -1.7907,-0.4572 -0.8001,-0.4699 -1.2573,-1.27 -0.4572,-0.8128 -0.4572,-1.8034 0,-0.9906 0.4191,-1.7907 0.4318,-0.8128 1.1684,-1.27 0.7493,-0.4572 1.6637,-0.4572 0.7366,0 1.3716,0.3048 0.635,0.3048 1.0795,0.8509 v -3.429 q 0,-0.2921 0.1778,-0.4699 0.1905,-0.1778 0.4699,-0.1778 z m -2.8448,8.8265 q 0.635,0 1.143,-0.3048 0.5207,-0.3175 0.8128,-0.8636 0.2921,-0.5461 0.2921,-1.2192 0,-0.6731 -0.2921,-1.2065 -0.2921,-0.5461 -0.8128,-0.8509 -0.508,-0.3175 -1.143,-0.3175 -0.635,0 -1.1557,0.3175 -0.508,0.3048 -0.8128,0.8509 -0.2921,0.5334 -0.2921,1.2065 0,0.6731 0.2921,1.2192 0.3048,0.5461 0.8128,0.8636 0.5207,0.3048 1.1557,0.3048 z"
       style="font-style:normal;font-variant:normal;font-weight:bold;font-stretch:normal;font-size:12.7px;line-height:1.25;font-family:Comfortaa;-inkscape-font-specification:'Comfortaa, Bold';font-variant-ligatures:normal;font-variant-caps:normal;font-variant-numeric:normal;font-variant-east-asian:normal;letter-spacing:-0.849312px;fill:#646464;fill-opacity:1;stroke:#ff0000;stroke-width:0;stroke-miterlimit:4;stroke-dasharray:none;stroke-opacity:1"
       id="path1260" />
    <path
       d="m 42.778008,34.732382 q 0,0.2413 -0.1651,0.4064 -0.1651,0.1524 -0.4191,0.1524 h -4.826 q 0.1397,0.889 0.8001,1.4351 0.6731,0.5461 1.6383,0.5461 0.381,0 0.7874,-0.1397 0.4191,-0.1397 0.6858,-0.3429 0.1778,-0.1397 0.4191,-0.1397 0.2413,0 0.381,0.127 0.2286,0.1905 0.2286,0.4318 0,0.2286 -0.2032,0.381 -0.4318,0.3429 -1.0795,0.5588 -0.635,0.2159 -1.2192,0.2159 -1.0414,0 -1.8669,-0.4445 -0.8255,-0.4572 -1.2954,-1.2573 -0.4572,-0.8001 -0.4572,-1.8161 0,-1.016 0.4318,-1.8161 0.4445,-0.8128 1.2192,-1.2573 0.7874,-0.4572 1.778,-0.4572 0.9779,0 1.6891,0.4318 0.7112,0.4318 1.0922,1.2065 0.381,0.7747 0.381,1.778 z m -3.1623,-2.3241 q -0.9271,0 -1.5113,0.508 -0.5715,0.508 -0.7239,1.3589 h 4.2291 q -0.1143,-0.8509 -0.635,-1.3589 -0.5207,-0.508 -1.3589,-0.508 z"
       style="font-style:normal;font-variant:normal;font-weight:bold;font-stretch:normal;font-size:12.7px;line-height:1.25;font-family:Comfortaa;-inkscape-font-specification:'Comfortaa, Bold';font-variant-ligatures:normal;font-variant-caps:normal;font-variant-numeric:normal;font-variant-east-asian:normal;letter-spacing:-0.849312px;fill:#646464;fill-opacity:1;stroke:#ff0000;stroke-width:0;stroke-miterlimit:4;stroke-dasharray:none;stroke-opacity:1"
       id="path1262" />
    <text
       xml:space="preserve"
       style="font-size:4.23333px;line-height:1.25;font-family:sans-serif;stroke-width:0.264583"
       x="13.993608"
       y="18.742489"
       id="text904"><tspan
         id="tspan902"
         x="13.993608"
         y="18.742489"
         style="stroke-width:0.264583" /></text>
    <path
       style="color:#000000;font-style:normal;font-variant:normal;font-weight:normal;font-stretch:normal;font-size:medium;line-height:normal;font-family:sans-serif;font-variant-ligatures:normal;font-variant-position:normal;font-variant-caps:normal;font-variant-numeric:normal;font-variant-alternates:normal;font-variant-east-asian:normal;font-feature-settings:normal;font-variation-settings:normal;text-indent:0;text-align:start;text-decoration:none;text-decoration-line:none;text-decoration-style:solid;text-decoration-color:#000000;letter-spacing:normal;word-spacing:normal;text-transform:none;writing-mode:lr-tb;direction:ltr;text-orientation:mixed;dominant-baseline:auto;baseline-shift:baseline;text-anchor:start;white-space:normal;shape-padding:0;shape-margin:0;inline-size:0;clip-rule:nonzero;display:inline;overflow:visible;visibility:visible;opacity:1;isolation:auto;mix-blend-mode:normal;color-interpolation:sRGB;color-interpolation-filters:linearRGB;solid-color:#000000;solid-opacity:1;vector-effect:none;fill:#000000;fill-opacity:1;fill-rule:nonzero;stroke:none;stroke-linecap:butt;stroke-linejoin:miter;stroke-miterlimit:4;stroke-dasharray:none;stroke-dashoffset:0;stroke-opacity:1;color-rendering:auto;image-rendering:auto;shape-rendering:auto;text-rendering:auto;enable-background:accumulate;stop-color:#000000;stop-opacity:1"
       d="m 21.666016,25.375 -1.148438,0.476562 c 0.229062,0.553005 0.229062,1.173559 0,1.726563 l 1.148438,0.474609 c 0.355137,-0.857377 0.355137,-1.820356 0,-2.677734 z"
       id="path965" />
    <path
       style="color:#000000;font-style:normal;font-variant:normal;font-weight:normal;font-stretch:normal;font-size:medium;line-height:normal;font-family:sans-serif;font-variant-ligatures:normal;font-variant-position:normal;font-variant-caps:normal;font-variant-numeric:normal;font-variant-alternates:normal;font-variant-east-asian:normal;font-feature-settings:normal;font-variation-settings:normal;text-indent:0;text-align:start;text-decoration:none;text-decoration-line:none;text-decoration-style:solid;text-decoration-color:#000000;letter-spacing:normal;word-spacing:normal;text-transform:none;writing-mode:lr-tb;direction:ltr;text-orientation:mixed;dominant-baseline:auto;baseline-shift:baseline;text-anchor:start;white-space:normal;shape-padding:0;shape-margin:0;inline-size:0;clip-rule:nonzero;display:inline;overflow:visible;visibility:visible;opacity:1;isolation:auto;mix-blend-mode:normal;color-interpolation:sRGB;color-interpolation-filters:linearRGB;solid-color:#000000;solid-opacity:1;vector-effect:none;fill:url(#linearGradient1213);fill-opacity:1;fill-rule:nonzero;stroke:none;stroke-linecap:butt;stroke-linejoin:miter;stroke-miterlimit:4;stroke-dasharray:none;stroke-dashoffset:0;stroke-opacity:1;color-rendering:auto;image-rendering:auto;shape-rendering:auto;text-rendering:auto;enable-background:accumulate;stop-color:#000000;stop-opacity:1"
       d="m 19.773438,23.480469 -0.476563,1.15039 c 0.553004,0.229062 0.991641,0.667699 1.220703,1.220703 L 21.666016,25.375 c -0.355138,-0.857377 -1.035201,-1.539394 -1.892578,-1.894531 z"
       id="path965-0" />
    <path
       style="color:#000000;font-style:normal;font-variant:normal;font-weight:normal;font-stretch:normal;font-size:medium;line-height:normal;font-family:sans-serif;font-variant-ligatures:normal;font-variant-position:normal;font-variant-caps:normal;font-variant-numeric:normal;font-variant-alternates:normal;font-variant-east-asian:normal;font-feature-settings:normal;font-variation-settings:normal;text-indent:0;text-align:start;text-decoration:none;text-decoration-line:none;text-decoration-style:solid;text-decoration-color:#000000;letter-spacing:normal;word-spacing:normal;text-transform:none;writing-mode:lr-tb;direction:ltr;text-orientation:mixed;dominant-baseline:auto;baseline-shift:baseline;text-anchor:start;white-space:normal;shape-padding:0;shape-margin:0;inline-size:0;clip-rule:nonzero;display:inline;overflow:visible;visibility:visible;opacity:1;isolation:auto;mix-blend-mode:normal;color-interpolation:sRGB;color-interpolation-filters:linearRGB;solid-color:#000000;solid-opacity:1;vector-effect:none;fill:url(#linearGradient1211);fill-opacity:1;fill-rule:nonzero;stroke:none;stroke-linecap:butt;stroke-linejoin:miter;stroke-miterlimit:4;stroke-dasharray:none;stroke-dashoffset:0;stroke-opacity:1;color-rendering:auto;image-rendering:auto;shape-rendering:auto;text-rendering:auto;enable-background:accumulate;stop-color:#000000;stop-opacity:1"
       d="m 18.433594,23.214844 c -0.455352,0 -0.911155,0.08806 -1.339844,0.265625 l 0.476562,1.15039 c 0.553005,-0.229061 1.173559,-0.229061 1.726563,0 l 0.476563,-1.15039 C 19.344749,23.3029 18.888945,23.214844 18.433594,23.214844 Z"
       id="path965-0-3" />
    <path
       style="color:#000000;font-style:normal;font-variant:normal;font-weight:normal;font-stretch:normal;font-size:medium;line-height:normal;font-family:sans-serif;font-variant-ligatures:normal;font-variant-position:normal;font-variant-caps:normal;font-variant-numeric:normal;font-variant-alternates:normal;font-variant-east-asian:normal;font-feature-settings:normal;font-variation-settings:normal;text-indent:0;text-align:start;text-decoration:none;text-decoration-line:none;text-decoration-style:solid;text-decoration-color:#000000;letter-spacing:normal;word-spacing:normal;text-transform:none;writing-mode:lr-tb;direction:ltr;text-orientation:mixed;dominant-baseline:auto;baseline-shift:baseline;text-anchor:start;white-space:normal;shape-padding:0;shape-margin:0;inline-size:0;clip-rule:nonzero;display:inline;overflow:visible;visibility:visible;opacity:1;isolation:auto;mix-blend-mode:normal;color-interpolation:sRGB;color-interpolation-filters:linearRGB;solid-color:#000000;solid-opacity:1;vector-effect:none;fill:url(#linearGradient1209);fill-opacity:1;fill-rule:nonzero;stroke:none;stroke-linecap:butt;stroke-linejoin:miter;stroke-miterlimit:4;stroke-dasharray:none;stroke-dashoffset:0;stroke-opacity:1;color-rendering:auto;image-rendering:auto;shape-rendering:auto;text-rendering:auto;enable-background:accumulate;stop-color:#000000;stop-opacity:1"
       d="m 17.09375,23.480469 c -0.857378,0.355137 -1.539394,1.037153 -1.894531,1.894531 l 1.15039,0.476562 c 0.229062,-0.553004 0.667699,-0.991641 1.220703,-1.220703 z"
       id="path965-0-3-9" />
    <path
       style="color:#000000;font-style:normal;font-variant:normal;font-weight:normal;font-stretch:normal;font-size:medium;line-height:normal;font-family:sans-serif;font-variant-ligatures:normal;font-variant-position:normal;font-variant-caps:normal;font-variant-numeric:normal;font-variant-alternates:normal;font-variant-east-asian:normal;font-feature-settings:normal;font-variation-settings:normal;text-indent:0;text-align:start;text-decoration:none;text-decoration-line:none;text-decoration-style:solid;text-decoration-color:#000000;letter-spacing:normal;word-spacing:normal;text-transform:none;writing-mode:lr-tb;direction:ltr;text-orientation:mixed;dominant-baseline:auto;baseline-shift:baseline;text-anchor:start;white-space:normal;shape-padding:0;shape-margin:0;inline-size:0;clip-rule:nonzero;display:inline;overflow:visible;visibility:visible;opacity:1;isolation:auto;mix-blend-mode:normal;color-interpolation:sRGB;color-interpolation-filters:linearRGB;solid-color:#000000;solid-opacity:1;vector-effect:none;fill:url(#linearGradient1207);fill-opacity:1;fill-rule:nonzero;stroke:none;stroke-linecap:butt;stroke-linejoin:miter;stroke-miterlimit:4;stroke-dasharray:none;stroke-dashoffset:0;stroke-opacity:1;color-rendering:auto;image-rendering:auto;shape-rendering:auto;text-rendering:auto;enable-background:accumulate;stop-color:#000000;stop-opacity:1"
       d="m 15.199219,25.375 c -0.355138,0.857377 -0.355138,1.820357 0,2.677734 l 1.15039,-0.474609 c -0.229061,-0.553004 -0.229061,-1.173558 0,-1.726563 z"
       id="path965-0-3-9-1" />
    <path
       style="color:#000000;font-style:normal;font-variant:normal;font-weight:normal;font-stretch:normal;font-size:medium;line-height:normal;font-family:sans-serif;font-variant-ligatures:normal;font-variant-position:normal;font-variant-caps:normal;font-variant-numeric:normal;font-variant-alternates:normal;font-variant-east-asian:normal;font-feature-settings:normal;font-variation-settings:normal;text-indent:0;text-align:start;text-decoration:none;text-decoration-line:none;text-decoration-style:solid;text-decoration-color:#000000;letter-spacing:normal;word-spacing:normal;text-transform:none;writing-mode:lr-tb;direction:ltr;text-orientation:mixed;dominant-baseline:auto;baseline-shift:baseline;text-anchor:start;white-space:normal;shape-padding:0;shape-margin:0;inline-size:0;clip-rule:nonzero;display:inline;overflow:visible;visibility:visible;opacity:1;isolation:auto;mix-blend-mode:normal;color-interpolation:sRGB;color-interpolation-filters:linearRGB;solid-color:#000000;solid-opacity:1;vector-effect:none;fill:url(#linearGradient1205);fill-opacity:1;fill-rule:nonzero;stroke:none;stroke-linecap:butt;stroke-linejoin:miter;stroke-miterlimit:4;stroke-dasharray:none;stroke-dashoffset:0;stroke-opacity:1;color-rendering:auto;image-rendering:auto;shape-rendering:auto;text-rendering:auto;enable-background:accumulate;stop-color:#000000;stop-opacity:1"
       d="m 16.349609,27.578125 -1.15039,0.474609 c 0.355137,0.857378 1.037153,1.539394 1.894531,1.894532 l 0.476562,-1.148438 c -0.553004,-0.229062 -0.991641,-0.667699 -1.220703,-1.220703 z"
       id="path965-0-3-9-1-9" />
    <path
       style="color:#000000;font-style:normal;font-variant:normal;font-weight:normal;font-stretch:normal;font-size:medium;line-height:normal;font-family:sans-serif;font-variant-ligatures:normal;font-variant-position:normal;font-variant-caps:normal;font-variant-numeric:normal;font-variant-alternates:normal;font-variant-east-asian:normal;font-feature-settings:normal;font-variation-settings:normal;text-indent:0;text-align:start;text-decoration:none;text-decoration-line:none;text-decoration-style:solid;text-decoration-color:#000000;letter-spacing:normal;word-spacing:normal;text-transform:none;writing-mode:lr-tb;direction:ltr;text-orientation:mixed;dominant-baseline:auto;baseline-shift:baseline;text-anchor:start;white-space:normal;shape-padding:0;shape-margin:0;inline-size:0;clip-rule:nonzero;display:inline;overflow:visible;visibility:visible;opacity:1;isolation:auto;mix-blend-mode:normal;color-interpolation:sRGB;color-interpolation-filters:linearRGB;solid-color:#000000;solid-opacity:1;vector-effect:none;fill:url(#linearGradient1203);fill-opacity:1;fill-rule:nonzero;stroke:none;stroke-linecap:butt;stroke-linejoin:miter;stroke-miterlimit:4;stroke-dasharray:none;stroke-dashoffset:0;stroke-opacity:1;color-rendering:auto;image-rendering:auto;shape-rendering:auto;text-rendering:auto;enable-background:accumulate;stop-color:#000000;stop-opacity:1"
       d="m 17.570312,28.798828 -0.476562,1.148438 c 0.857378,0.355137 1.82231,0.355137 2.679688,0 l -0.476563,-1.148438 c -0.553004,0.229062 -1.173558,0.229062 -1.726563,0 z"
       id="path965-0-3-9-1-9-6" />
    <path
       style="color:#000000;font-style:normal;font-variant:normal;font-weight:normal;font-stretch:normal;font-size:medium;line-height:normal;font-family:sans-serif;font-variant-ligatures:normal;font-variant-position:normal;font-variant-caps:normal;font-variant-numeric:normal;font-variant-alternates:normal;font-variant-east-asian:normal;font-feature-settings:normal;font-variation-settings:normal;text-indent:0;text-align:start;text-decoration:none;text-decoration-line:none;text-decoration-style:solid;text-decoration-color:#000000;letter-spacing:normal;word-spacing:normal;text-transform:none;writing-mode:lr-tb;direction:ltr;text-orientation:mixed;dominant-baseline:auto;baseline-shift:baseline;text-anchor:start;white-space:normal;shape-padding:0;shape-margin:0;inline-size:0;clip-rule:nonzero;display:inline;overflow:visible;visibility:visible;opacity:1;isolation:auto;mix-blend-mode:normal;color-interpolation:sRGB;color-interpolation-filters:linearRGB;solid-color:#000000;solid-opacity:1;vector-effect:none;fill:url(#linearGradient1201);fill-opacity:1;fill-rule:nonzero;stroke:none;stroke-linecap:butt;stroke-linejoin:miter;stroke-miterlimit:4;stroke-dasharray:none;stroke-dashoffset:0;stroke-opacity:1;color-rendering:auto;image-rendering:auto;shape-rendering:auto;text-rendering:auto;enable-background:accumulate;stop-color:#000000;stop-opacity:1"
       d="m 20.517578,27.578125 c -0.229062,0.553004 -0.667699,0.991641 -1.220703,1.220703 l 0.476563,1.148438 c 0.857377,-0.355138 1.53744,-1.037154 1.892578,-1.894532 z"
       id="path965-0-3-9-1-9-6-9" />
    <path
       d="m 20.689298,26.696321 h 1.243028 v 2.8321 c 0,0.186267 -0.0635,0.3429 -0.1905,0.4699 -0.118533,0.118533 -0.270933,0.1778 -0.4572,0.1778 -0.186267,0 -0.3429,-0.05927 -0.4699,-0.1778 -0.118533,-0.127 -0.1778,-0.283633 -0.1778,-0.4699 v -0.4699 c 0.05237,-2.3622 5.2e-5,0.0056 0.05237,-2.3622 z"
       style="font-style:normal;font-variant:normal;font-weight:bold;font-stretch:normal;font-size:12.7px;line-height:1.25;font-family:Comfortaa;-inkscape-font-specification:'Comfortaa, Bold';font-variant-ligatures:normal;font-variant-caps:normal;font-variant-numeric:normal;font-variant-east-asian:normal;letter-spacing:-0.849312px;fill:#000000;fill-opacity:1;stroke:#ff0000;stroke-width:0;stroke-miterlimit:4;stroke-dasharray:none;stroke-opacity:1"
       id="path930" />
    <path
       d="m 28.740719,23.203774 q 0.2921,0 0.4699,0.1778 0.1778,0.1778 0.1778,0.4699 v 5.6642 q 0,0.2794 -0.1778,0.4699 -0.1778,0.1778 -0.4699,0.1778 -0.2794,0 -0.4699,-0.1778 -0.1778,-0.1905 -0.1778,-0.4699 v -0.1397 q -0.4064,0.4064 -0.9652,0.635 -0.5588,0.2159 -1.1938,0.2159 -0.8763,0 -1.5748,-0.381 -0.6985,-0.381 -1.0922,-1.1049 -0.3937,-0.7366 -0.3937,-1.7653 v -3.1242 q 0,-0.2794 0.1778,-0.4572 0.1905,-0.1905 0.4699,-0.1905 0.2794,0 0.4572,0.1905 0.1905,0.1778 0.1905,0.4572 v 3.1242 q 0,1.0287 0.5461,1.5621 0.5588,0.5207 1.4732,0.5207 0.5334,0 0.9652,-0.2159 0.4445,-0.2159 0.6858,-0.5842 0.254,-0.3683 0.254,-0.8255 v -3.5814 q 0,-0.2921 0.1778,-0.4699 0.1905,-0.1778 0.4699,-0.1778 z"
       style="font-style:normal;font-variant:normal;font-weight:bold;font-stretch:normal;font-size:12.7px;line-height:1.25;font-family:Comfortaa;-inkscape-font-specification:'Comfortaa, Bold';font-variant-ligatures:normal;font-variant-caps:normal;font-variant-numeric:normal;font-variant-east-asian:normal;letter-spacing:-0.849312px;fill:#000000;fill-opacity:1;stroke:#ff0000;stroke-width:0;stroke-miterlimit:4;stroke-dasharray:none;stroke-opacity:1"
       id="path932" />
    <path
       d="m 34.257519,21.413074 q -0.7112,0 -1.143,0.4699 -0.4318,0.4699 -0.4318,1.2446 v 0.3429 h 1.2954 q 0.2667,0 0.4318,0.1524 0.1651,0.1524 0.1651,0.4064 0,0.2286 -0.1651,0.381 -0.1651,0.1524 -0.4318,0.1524 h -1.2954 v 4.953 q 0,0.2921 -0.1778,0.4699 -0.1778,0.1778 -0.4953,0.1778 -0.254,0 -0.4445,-0.1778 -0.1778,-0.1778 -0.1778,-0.4699 v -4.953 h -0.5461 q -0.2667,0 -0.4318,-0.1524 -0.1651,-0.1524 -0.1651,-0.381 0,-0.254 0.1651,-0.4064 0.1651,-0.1524 0.4318,-0.1524 h 0.5461 v -0.2159 q 0,-0.9017 0.3556,-1.5748 0.3683,-0.6858 1.016,-1.0541 0.6604,-0.381 1.4986,-0.381 0.2794,0 0.4572,0.1651 0.1905,0.1651 0.1905,0.4191 0,0.254 -0.1905,0.4191 -0.1778,0.1651 -0.4572,0.1651 z"
       style="font-style:normal;font-variant:normal;font-weight:bold;font-stretch:normal;font-size:12.7px;line-height:1.25;font-family:Comfortaa;-inkscape-font-specification:'Comfortaa, Bold';font-variant-ligatures:normal;font-variant-caps:normal;font-variant-numeric:normal;font-variant-east-asian:normal;letter-spacing:-0.849312px;fill:#000000;fill-opacity:1;stroke:#ff0000;stroke-width:0;stroke-miterlimit:4;stroke-dasharray:none;stroke-opacity:1"
       id="path934" />
  </g>
</svg>
